<?xml version="1.0" encoding="UTF-8" standalone="no"?>
<!-- Creator: CorelDRAW 2017 -->

<svg
   xmlns:dc="http://purl.org/dc/elements/1.1/"
   xmlns:cc="http://creativecommons.org/ns#"
   xmlns:rdf="http://www.w3.org/1999/02/22-rdf-syntax-ns#"
   xmlns:svg="http://www.w3.org/2000/svg"
   xmlns="http://www.w3.org/2000/svg"
   xmlns:sodipodi="http://sodipodi.sourceforge.net/DTD/sodipodi-0.dtd"
   xmlns:inkscape="http://www.inkscape.org/namespaces/inkscape"
   xml:space="preserve"
   width="4.6908512in"
   height="1.2069048in"
   version="1.1"
   style="clip-rule:evenodd;fill-rule:evenodd;image-rendering:optimizeQuality;shape-rendering:geometricPrecision;text-rendering:geometricPrecision"
   viewBox="0 0 4793.208 1233.24"
   id="svg19"
   sodipodi:docname="epic-kitchens-logo-red-side.svg"
   inkscape:version="0.91 r13725"><metadata
     id="metadata23"><rdf:RDF><cc:Work
         rdf:about=""><dc:format>image/svg+xml</dc:format><dc:type
           rdf:resource="http://purl.org/dc/dcmitype/StillImage" /><dc:title></dc:title></cc:Work></rdf:RDF></metadata><sodipodi:namedview
     pagecolor="#ffffff"
     bordercolor="#666666"
     borderopacity="1"
     objecttolerance="10"
     gridtolerance="10"
     guidetolerance="10"
     inkscape:pageopacity="0"
     inkscape:pageshadow="2"
     inkscape:window-width="1280"
     inkscape:window-height="657"
     id="namedview21"
     showgrid="false"
     inkscape:zoom="0.9548497"
     inkscape:cx="189.46955"
     inkscape:cy="44.387906"
     inkscape:current-layer="g4734"
     inkscape:window-x="-8"
     inkscape:window-y="-8"
     inkscape:window-maximized="1"
     fit-margin-top="0"
     fit-margin-left="0"
     fit-margin-right="0"
     fit-margin-bottom="0" /><defs
     id="defs4"><style
       type="text/css"
       id="style2"><![CDATA[
    .fil2 {fill:#1F1F1F}
    .fil3 {fill:#FE002A}
    .fil0 {fill:white}
    .fil1 {fill:#1F1F1F;fill-rule:nonzero}
   ]]></style></defs><g
     id="g4734"
     transform="translate(-1115.9054,-2789.45)"><g
       transform="translate(-1352.6246,399.72)"
       id="g4590"><path
         class="fil1"
         d="m 3458.08,2568.76 c 187.7,25.49 356.08,107.6 484.51,227.21 157.86,147.03 255.51,350.45 255.51,575.38 l -162.45,0 c 0,-178.12 -77.76,-339.62 -203.48,-456.71 -127.26,-118.53 -303.62,-191.86 -498.86,-191.86 -195.24,0 -371.59,73.33 -498.85,191.86 -125.72,117.09 -203.48,278.59 -203.48,456.71 l -162.45,0 c 0,-224.93 97.65,-428.35 255.51,-575.38 128.43,-119.62 296.8,-201.74 484.52,-227.21 -33.19,-50.21 -84.82,-130.44 -73.22,-150.99 14.07,-24.93 158.54,-27.81 197.98,-28.04 39.44,0.23 183.91,3.12 197.98,28.04 11.6,20.55 -40.03,100.79 -73.22,150.99 z"
         id="path9"
         inkscape:connector-curvature="0"
         style="fill:#ffffff;fill-rule:nonzero" /><path
         class="fil2"
         d="m 2468.55,3472.88 1729.56,0 0,85.12 c 0,35.74 -29.23,64.97 -64.97,64.97 l -1599.61,0 c -35.74,0 -64.97,-29.23 -64.97,-64.97 l 0,-85.12 z"
         id="path11"
         inkscape:connector-curvature="0"
         style="fill:#ffffff" /><path
         class="fil3"
         d="m 3193.61,3294.72 0.89,-157.64 0.91,-160.44 c 0.17,-29.85 15.06,-55.39 40.95,-70.24 25.89,-14.84 55.46,-14.8 81.31,0.12 l 136.37,78.74 136.38,78.74 c 25.85,14.93 40.67,40.51 40.76,70.36 0.09,29.85 -14.59,55.51 -40.35,70.59 l -138.48,81.01 -136.08,79.59 c -25.97,15.19 -55.85,15.28 -81.9,0.24 -26.06,-15.05 -40.93,-40.96 -40.75,-71.05 z"
         id="path13"
         inkscape:connector-curvature="0"
         style="fill:#fe002a" /></g><g
       transform="translate(-1139.7456,389.2632)"
       id="g4594"
       style="fill:#000000;fill-opacity:1"><path
         class="fil1"
         d="m 4551.2591,3419.0868 151.76,-156.98 -78.75,0 -173.67,183.58 0,-183.58 -64.15,0 0,365.07 64.15,0 0,-105.87 56.85,-58.41 124.65,164.28 77.71,0 -158.54,-208.09 z m 216.96,-156.98 0,365.07 64.15,0 0,-365.07 z m 316.05,59.45 115.78,0 0,-59.45 -296.23,0 0,59.45 115.78,0 0,305.62 64.67,0 z m 481.37,247.2 -41.2,-41.72 c -31.29,29.21 -59.98,47.46 -104.83,47.46 -69.89,0 -120.47,-58.41 -120.47,-130.38 0,-71.97 50.59,-129.34 120.47,-129.34 41.72,0 73.02,18.25 102.22,45.37 l 41.2,-47.46 c -34.94,-33.38 -75.62,-56.85 -142.9,-56.85 -110.57,0 -188.27,85.01 -188.27,189.32 0,105.35 79.27,188.27 185.67,188.27 68.32,0 110.04,-25.03 148.11,-64.67 z m 305.62,-95.44 0,153.85 64.15,0 0,-365.07 -64.15,0 0,151.76 -174.19,0 0,-151.76 -64.15,0 0,365.07 64.15,0 0,-153.85 z m 428.7,-211.22 -270.67,0 0,365.07 273.28,0 0,-57.37 -209.14,0 0,-98.05 183.06,0 0,-57.37 -183.06,0 0,-94.92 206.53,0 0,-57.37 z m 333.78,252.42 -195.57,-252.42 -59.45,0 0,365.07 63.1,0 0,-259.72 201.31,259.72 53.72,0 0,-365.07 -63.1,0 0,252.42 z m 211.22,-156.98 c 0,-24.51 21.9,-43.81 59.45,-43.81 33.38,0 66.23,13.04 99.09,37.55 l 34.42,-48.5 c -37.03,-29.73 -79.27,-45.89 -132.47,-45.89 -72.49,0 -124.65,42.76 -124.65,106.39 0,67.8 43.81,90.75 121.52,109.52 67.8,15.65 82.4,29.73 82.4,56.32 0,28.16 -25.03,46.42 -64.67,46.42 -45.37,0 -80.31,-17.21 -115.26,-47.46 l -38.59,45.9 c 43.81,39.11 96.48,58.41 152.28,58.41 76.66,0 130.38,-40.68 130.38,-109.52 0,-61.02 -40.16,-88.66 -117.34,-107.44 -69.88,-16.69 -86.57,-29.21 -86.57,-57.89 z"
         id="path15"
         inkscape:connector-curvature="0"
         style="fill:#ffffff;fill-opacity:1;fill-rule:nonzero"
         sodipodi:nodetypes="ccccccccccccccccccccccccccccccsssccssscccccccccccccccccccccccccccccccccccccccccsccsscssccssccc" /><path
         class="fil1"
         d="m 4657.1191,2752.9152 -270.67,0 0,365.0699 273.28,0 0,-57.37 -209.14,0 0,-98.05 183.06,0 0,-57.37 -183.06,0 0,-94.9199 206.53,0 0,-57.37 z m 361.42,122.5599 c 0,-74.5799 -53.71,-122.5599 -138.73,-122.5599 l -143.94,0 0,365.0699 64.15,0 0,-117.34 72.49,0 c 80.32,0 146.03,-42.7599 146.03,-125.17 z m -65.19,1.56 c 0,39.11 -30.25,65.71 -78.75,65.71 l -74.58,0 0,-131.4199 74.58,0 c 47.98,0 78.75,22.4199 78.75,65.7099 z m 134.56,-124.1199 0,365.0699 64.15,0 0,-365.0699 z m 479.29,306.6599 -41.2,-41.72 c -31.2901,29.21 -59.98,47.46 -104.83,47.46 -69.89,0 -120.47,-58.41 -120.47,-130.38 0,-71.97 50.59,-129.3399 120.47,-129.3399 41.7199,0 73.02,18.25 102.22,45.37 l 41.2,-47.46 c -34.9401,-33.38 -75.62,-56.85 -142.9,-56.85 -110.57,0 -188.27,85.01 -188.27,189.3199 0,105.35 79.27,188.27 185.67,188.27 68.32,0 110.04,-25.03 148.11,-64.67 z"
         id="path15-4"
         inkscape:connector-curvature="0"
         style="clip-rule:evenodd;fill:#ffffff;fill-opacity:1;fill-rule:nonzero;stroke-width:0.99999994;image-rendering:optimizeQuality;shape-rendering:geometricPrecision;text-rendering:geometricPrecision"
         sodipodi:nodetypes="ccccccccccccccssccccssssccsscccccccsssccsssc" /></g></g></svg>