<?xml version="1.0" standalone="no"?>
<!DOCTYPE svg PUBLIC "-//W3C//DTD SVG 20010904//EN"
 "http://www.w3.org/TR/2001/REC-SVG-20010904/DTD/svg10.dtd">
<svg version="1.0" xmlns="http://www.w3.org/2000/svg"
 width="700.000000pt" height="700.000000pt" viewBox="0 0 700.000000 700.000000"
 preserveAspectRatio="xMidYMid meet">
<metadata>
Created by potrace 1.11, written by Peter Selinger 2001-2013
</metadata>
<g transform="translate(0.000000,700.000000) scale(0.100000,-0.100000)"
fill="#000000" stroke="none">
<path d="M3249 5607 c-2 -3 -47 -7 -99 -11 -104 -8 -120 -10 -197 -25 -71 -14
-119 -36 -132 -59 -6 -11 -8 -21 -6 -23 2 -3 7 -20 10 -38 10 -59 110 -247
206 -387 36 -53 39 -66 14 -70 -11 -1 -36 -6 -55 -10 -19 -3 -48 -8 -65 -11
-62 -10 -105 -20 -235 -53 -657 -168 -1265 -585 -1658 -1137 -191 -268 -344
-600 -417 -903 -15 -64 -26 -116 -31 -148 -3 -20 -8 -40 -9 -43 -2 -3 -7 -37
-10 -75 -4 -38 -9 -72 -11 -76 -2 -3 -7 -69 -10 -147 l-7 -141 277 0 c152 0
277 3 277 8 1 4 3 32 4 62 16 313 82 573 215 845 157 320 396 606 685 818 28
20 55 40 60 45 6 4 52 34 103 65 278 172 578 284 912 342 176 31 515 43 680
24 140 -16 149 -17 340 -55 55 -11 248 -68 285 -84 11 -5 52 -21 90 -36 176
-68 397 -193 567 -322 93 -70 278 -244 359 -337 37 -43 146 -192 194 -265 128
-197 249 -514 291 -760 2 -14 6 -39 9 -57 7 -39 18 -182 19 -245 l1 -48 279 0
279 0 -6 137 c-4 76 -9 147 -11 159 -2 12 -7 45 -11 75 -4 30 -10 72 -15 94
-5 22 -11 54 -14 70 -10 53 -15 76 -21 95 -3 10 -8 27 -10 37 -8 36 -54 180
-82 258 -58 156 -170 378 -252 500 -17 25 -31 48 -31 51 0 3 -5 10 -10 17 -6
7 -42 55 -81 107 -85 113 -151 189 -248 287 -87 88 -260 238 -327 283 -27 19
-55 40 -62 47 -27 26 -272 173 -377 226 -292 146 -658 264 -908 293 -29 3 -55
9 -59 13 -4 4 9 31 29 61 96 142 191 320 211 392 23 83 -31 110 -288 143 -52
7 -634 17 -641 12z"/>
<path d="M3245 3870 c-110 -25 -197 -120 -213 -230 -2 -19 -5 -296 -6 -615 -1
-571 -1 -581 20 -626 45 -98 139 -160 248 -164 78 -3 105 9 366 162 113 66
221 130 240 141 52 29 197 114 233 136 18 11 41 24 52 30 11 6 69 40 128 76
154 91 195 147 202 270 7 116 -49 203 -178 278 -45 26 -89 52 -99 57 -9 6 -29
17 -45 26 -28 15 -335 193 -518 299 -159 93 -207 119 -255 142 -48 21 -125 30
-175 18z"/>
<path d="M538 1790 c-5 -183 2 -239 37 -296 23 -36 45 -56 86 -77 l56 -29
2775 0 c2134 0 2785 3 2816 12 67 21 132 91 147 160 8 38 10 328 2 336 -2 3
-1335 6 -2960 7 l-2956 2 -3 -115z"/>
</g>
</svg>
