<?xml version="1.0" encoding="UTF-8"?>
<!DOCTYPE svg PUBLIC "-//W3C//DTD SVG 1.1//EN" "http://www.w3.org/Graphics/SVG/1.1/DTD/svg11.dtd">
<!-- Creator: CorelDRAW 2017 -->
<svg xmlns="http://www.w3.org/2000/svg" xml:space="preserve" width="6.66667in" height="6.66667in" version="1.1" style="shape-rendering:geometricPrecision; text-rendering:geometricPrecision; image-rendering:optimizeQuality; fill-rule:evenodd; clip-rule:evenodd"
viewBox="0 0 6812.14 6812.14"
 xmlns:xlink="http://www.w3.org/1999/xlink">
 <defs>
  <style type="text/css">
   <![CDATA[
    .fil2 {fill:#1F1F1F}
    .fil3 {fill:#FE002A}
    .fil0 {fill:white}
    .fil1 {fill:#1F1F1F;fill-rule:nonzero}
   ]]>
  </style>
 </defs>
 <g id="Layer_x0020_1">
  <metadata id="CorelCorpID_0Corel-Layer"/>
  <rect class="fil0" x="-0" y="-0" width="6812.14" height="6812.14"/>
  <g id="_1241616465392">
   <path class="fil1" d="M3458.08 2568.76c187.7,25.49 356.08,107.6 484.51,227.21 157.86,147.03 255.51,350.45 255.51,575.38l-162.45 0c0,-178.12 -77.76,-339.62 -203.48,-456.71 -127.26,-118.53 -303.62,-191.86 -498.86,-191.86 -195.24,0 -371.59,73.33 -498.85,191.86 -125.72,117.09 -203.48,278.59 -203.48,456.71l-162.45 0c0,-224.93 97.65,-428.35 255.51,-575.38 128.43,-119.62 296.8,-201.74 484.52,-227.21 -33.19,-50.21 -84.82,-130.44 -73.22,-150.99 14.07,-24.93 158.54,-27.81 197.98,-28.04 39.44,0.23 183.91,3.12 197.98,28.04 11.6,20.55 -40.03,100.79 -73.22,150.99z"/>
   <path class="fil2" d="M2468.55 3472.88l1729.56 0 0 85.12c0,35.74 -29.23,64.97 -64.97,64.97l-1599.61 0c-35.74,0 -64.97,-29.23 -64.97,-64.97l0 -85.12z"/>
   <path class="fil3" d="M3193.61 3294.72l0.89 -157.64 0.91 -160.44c0.17,-29.85 15.06,-55.39 40.95,-70.24 25.89,-14.84 55.46,-14.8 81.31,0.12l136.37 78.74 136.38 78.74c25.85,14.93 40.67,40.51 40.76,70.36 0.09,29.85 -14.59,55.51 -40.35,70.59l-138.48 81.01 -136.08 79.59c-25.97,15.19 -55.85,15.28 -81.9,0.24 -26.06,-15.05 -40.93,-40.96 -40.75,-71.05z"/>
   <path class="fil1" d="M1545 3942.09l-270.67 0 0 365.07 273.28 0 0 -57.37 -209.14 0 0 -98.05 183.06 0 0 -57.37 -183.06 0 0 -94.92 206.53 0 0 -57.37zm361.42 122.56c0,-74.58 -53.71,-122.56 -138.73,-122.56l-143.94 0 0 365.07 64.15 0 0 -117.34 72.49 0c80.32,0 146.03,-42.76 146.03,-125.17zm-65.19 1.56c0,39.11 -30.25,65.71 -78.75,65.71l-74.58 0 0 -131.42 74.58 0c47.98,0 78.75,22.42 78.75,65.71zm134.56 -124.12l0 365.07 64.15 0 0 -365.07 -64.15 0zm479.29 306.66l-41.2 -41.72c-31.29,29.21 -59.98,47.46 -104.83,47.46 -69.89,0 -120.47,-58.41 -120.47,-130.38 0,-71.97 50.59,-129.34 120.47,-129.34 41.72,0 73.02,18.25 102.22,45.37l41.2 -47.46c-34.94,-33.38 -75.62,-56.85 -142.9,-56.85 -110.57,0 -188.27,85.01 -188.27,189.32 0,105.35 79.27,188.27 185.67,188.27 68.32,0 110.04,-25.03 148.11,-64.67zm198.7 -70.41l0 -62.06 -154.37 0 0 62.06 154.37 0zm240.95 -79.27l151.76 -156.98 -78.75 0 -173.67 183.58 0 -183.58 -64.15 0 0 365.07 64.15 0 0 -105.87 56.85 -58.41 124.65 164.28 77.71 0 -158.54 -208.09zm216.96 -156.98l0 365.07 64.15 0 0 -365.07 -64.15 0zm316.05 59.45l115.78 0 0 -59.45 -296.23 0 0 59.45 115.78 0 0 305.62 64.67 0 0 -305.62zm481.37 247.2l-41.2 -41.72c-31.29,29.21 -59.98,47.46 -104.83,47.46 -69.89,0 -120.47,-58.41 -120.47,-130.38 0,-71.97 50.59,-129.34 120.47,-129.34 41.72,0 73.02,18.25 102.22,45.37l41.2 -47.46c-34.94,-33.38 -75.62,-56.85 -142.9,-56.85 -110.57,0 -188.27,85.01 -188.27,189.32 0,105.35 79.27,188.27 185.67,188.27 68.32,0 110.04,-25.03 148.11,-64.67zm305.62 -95.44l0 153.85 64.15 0 0 -365.07 -64.15 0 0 151.76 -174.19 0 0 -151.76 -64.15 0 0 365.07 64.15 0 0 -153.85 174.19 0zm428.7 -211.22l-270.67 0 0 365.07 273.28 0 0 -57.37 -209.14 0 0 -98.05 183.06 0 0 -57.37 -183.06 0 0 -94.92 206.53 0 0 -57.37zm333.78 252.42l-195.57 -252.42 -59.45 0 0 365.07 63.1 0 0 -259.72 201.31 259.72 53.72 0 0 -365.07 -63.1 0 0 252.42zm211.22 -156.98c0,-24.51 21.9,-43.81 59.45,-43.81 33.38,0 66.23,13.04 99.09,37.55l34.42 -48.5c-37.03,-29.73 -79.27,-45.89 -132.47,-45.89 -72.49,0 -124.65,42.76 -124.65,106.39 0,67.8 43.81,90.75 121.52,109.52 67.8,15.65 82.4,29.73 82.4,56.32 0,28.16 -25.03,46.42 -64.67,46.42 -45.37,0 -80.31,-17.21 -115.26,-47.46l-38.59 45.9c43.81,39.11 96.48,58.41 152.28,58.41 76.66,0 130.38,-40.68 130.38,-109.52 0,-61.02 -40.16,-88.66 -117.34,-107.44 -69.88,-16.69 -86.57,-29.21 -86.57,-57.89z"/>
  </g>
 </g>
</svg>
